<svg xmlns="http://www.w3.org/2000/svg" perveAspectRatio="none">

  <symbol id="icon-twitter" viewBox="0 0 40 40" iconSet="social">
    <title>Twitter</title>
    <desc>Twitter logo</desc>
    <path style="fill-rule:evenodd;clip-rule:evenodd;" d="M40,20c0,11-9,20-20,20S0,31,0,20S9,0,20,0S40,9,40,20z
     M24.1,10.8c1.3,0,2.4,0.6,3.2,1.5c1-0.2,2-0.6,2.8-1.1c-0.3,1.1-1,2-1.9,2.5c0.9-0.1,1.7-0.3,2.5-0.7c-0.6,0.9-1.3,1.7-2.2,2.4
    c0,0.2,0,0.4,0,0.6c0,6.1-4.4,13.2-12.6,13.2c-2.5,0-4.8-0.8-6.8-2.1c0.3,0,0.7,0.1,1.1,0.1c2.1,0,4-0.7,5.5-2
    c-1.9,0-3.6-1.4-4.1-3.3c0.3,0.1,0.5,0.1,0.8,0.1c0.4,0,0.8-0.1,1.2-0.2c-2-0.4-3.5-2.4-3.5-4.7c0,0,0,0,0-0.1
    c0.6,0.4,1.3,0.6,2,0.6c-1.2-0.9-2-2.3-2-3.9c0-0.9,0.2-1.7,0.6-2.4c2.2,2.9,5.4,4.8,9.1,5c-0.1-0.3-0.1-0.7-0.1-1.1
    C19.7,12.8,21.7,10.7,24.1,10.8z"/>
  </symbol>

  <symbol id="icon-linkedin" viewBox="0 0 40 40" iconSet="social">
    <title>LinkedIn</title>
    <desc>LinkedIn logo</desc>
    <path d="M20,0C9,0,0,9,0,20c0,11,9,20,20,20s20-9,20-20C40,9,31,0,20,0z M14.8,27.8h-4.1V15.6h4.1V27.8z
       M12.8,13.9L12.8,13.9c-1.4,0-2.3-0.9-2.3-2.1c0-1.2,0.9-2.1,2.3-2.1c1.4,0,2.3,0.9,2.3,2.1C15.1,13,14.2,13.9,12.8,13.9z
       M29.5,27.8h-4.1v-6.6c0-1.6-0.6-2.8-2.1-2.8c-1.1,0-1.8,0.8-2.1,1.5c-0.1,0.3-0.1,0.6-0.1,1v6.9h-4.1c0,0,0.1-11.1,0-12.3h4.1v1.7
      c0.5-0.8,1.5-2,3.7-2c2.7,0,4.7,1.8,4.7,5.5V27.8z"/>
  </symbol>

  <symbol id="icon-youtube" viewBox="0 0 40 40" iconSet="social">
    <title>YouTube</title>
    <desc>YouTube logo</desc>
    <path d="M16.6,24.1l6.8-4.1l-6.8-4.1V24.1z"/>
    <path d="M20,0C9,0,0,9,0,20c0,11,9,20,20,20s20-9,20-20S31,0,20,0z M30.9,20.9c0,1.9-0.2,3.8-0.2,3.8
      s-0.2,1.6-0.9,2.3c-0.8,0.9-1.8,0.9-2.2,1c-3,0.2-7.6,0.2-7.6,0.2s-5.6-0.1-7.4-0.2c-0.5-0.1-1.6-0.1-2.4-1
      c-0.7-0.7-0.9-2.3-0.9-2.3s-0.2-1.9-0.2-3.8v-1.8c0-1.9,0.2-3.7,0.2-3.7s0.2-1.6,0.9-2.3c0.8-0.9,1.8-0.9,2.2-1
      c3-0.2,7.6-0.2,7.6-0.2h0c0,0,4.6,0,7.6,0.2c0.4,0.1,1.3,0.1,2.2,1c0.7,0.7,0.9,2.3,0.9,2.3s0.2,1.9,0.2,3.8V20.9z"/>
  </symbol>

  <symbol id="icon-facebook" viewBox="0 0 40 40" iconSet="social">
    <title>Facebook</title>
    <desc>Facebook logo</desc>
    <path d="M20,0.2c-11,0-20,9-20,20s9,20,20,20s20-9,20-20S31,0.2,20,0.2z M24.4,20.2h-2.8v10.2h-4.2V20.2h-2.1
      v-3.5h2.1v-2.1c0-2.9,1.2-4.6,4.5-4.6h2.8v3.5H23c-1.3,0-1.4,0.5-1.4,1.4l0,1.8h3.2L24.4,20.2z"/>
  </symbol>

  <symbol id="icon-instagram" viewBox="0 0 40 40" iconSet="social">
    <title>Instagram</title>
    <desc>Instagram logo</desc>
    <path d="M24.6,11.5h-9.2c-0.5,0-1,0.1-1.5,0.3c-0.5,0.2-0.9,0.5-1.3,0.8s-0.6,0.8-0.8,1.3
      c-0.2,0.5-0.3,1-0.3,1.5v9.2c0,1,0.4,2,1.1,2.7c0.4,0.4,0.8,0.6,1.3,0.8c0.5,0.2,1,0.3,1.5,0.3h9.2c1,0,2-0.4,2.7-1.1
      c0.7-0.7,1.1-1.7,1.1-2.7v-9.2c0-0.5-0.1-1-0.3-1.5c-0.2-0.5-0.5-0.9-0.8-1.3c-0.4-0.4-0.8-0.6-1.3-0.8
      C25.6,11.6,25.1,11.5,24.6,11.5z M20,25.3c-1.1,0-2.1-0.3-3-0.9c-0.9-0.6-1.6-1.4-2-2.4c-0.4-1-0.5-2.1-0.3-3.1c0.2-1,0.7-2,1.5-2.7
      c0.7-0.7,1.7-1.3,2.7-1.5c1-0.2,2.1-0.1,3.1,0.3c1,0.4,1.8,1.1,2.4,2c0.6,0.9,0.9,1.9,0.9,3c0,0.7-0.1,1.4-0.4,2
      c-0.3,0.6-0.7,1.2-1.2,1.7c-0.5,0.5-1.1,0.9-1.7,1.2C21.4,25.2,20.7,25.3,20,25.3z M25.6,15.7c-0.3,0-0.5-0.1-0.7-0.2
      c-0.2-0.1-0.4-0.3-0.5-0.6c-0.1-0.2-0.1-0.5-0.1-0.7c0-0.2,0.2-0.5,0.3-0.7c0.2-0.2,0.4-0.3,0.7-0.3c0.2,0,0.5,0,0.7,0.1
      c0.2,0.1,0.4,0.3,0.6,0.5c0.1,0.2,0.2,0.5,0.2,0.7c0,0.3-0.1,0.7-0.4,0.9C26.2,15.6,25.9,15.7,25.6,15.7z"/>
    <path d="M20,16.5c-0.7,0-1.4,0.2-1.9,0.6c-0.6,0.4-1,0.9-1.3,1.6c-0.3,0.6-0.3,1.3-0.2,2
      c0.1,0.7,0.5,1.3,1,1.8c0.5,0.5,1.1,0.8,1.8,1c0.7,0.1,1.4,0.1,2-0.2c0.6-0.3,1.2-0.7,1.6-1.3c0.4-0.6,0.6-1.2,0.6-1.9
      c0-0.9-0.4-1.8-1-2.5S20.9,16.5,20,16.5z"/>
    <path d="M20,0C9,0,0,9,0,20s9,20,20,20s20-9,20-20S31,0,20,0z M30.4,24.4c0,1.6-0.6,3.1-1.8,4.2
      c-1.1,1.1-2.7,1.8-4.2,1.8h-8.8c-1.6,0-3.1-0.6-4.2-1.8c-1.1-1.1-1.8-2.7-1.8-4.2v-8.8c0-1.6,0.6-3.1,1.8-4.2s2.7-1.8,4.2-1.8h8.8
      c1.6,0,3.1,0.6,4.2,1.8c1.1,1.1,1.8,2.7,1.8,4.2V24.4z"/>
  </symbol>

  <symbol id="icon-tiktok" viewBox="0 0 40 40" iconSet="social">
    <title>TikTok</title>
    <desc>TikTok logo</desc>
    <path d="M20,0C9,0,0,9,0,20s9,20,20,20s20-9,20-20S31,0,20,0z
     M29.4,18.2c-1.3,0-2.6-0.3-3.8-0.9c-0.5-0.2-1-0.5-1.5-0.8c0,2.6,0,5.3,0,7.9c-0.1,1.3-0.5,2.5-1.2,3.5c-1.2,1.7-3.2,2.9-5.3,2.9
    c-1.3,0.1-2.6-0.3-3.7-0.9c-1.8-1.1-3.1-3-3.3-5.1c0-0.5,0-0.9,0-1.3c0.2-1.7,1-3.3,2.3-4.5c1.5-1.3,3.6-1.9,5.5-1.5
    c0,1.3,0,2.7,0,4c-0.9-0.3-1.9-0.2-2.7,0.3c-0.6,0.4-1,0.9-1.2,1.6c-0.2,0.5-0.1,1-0.1,1.4c0.2,1.5,1.6,2.7,3.2,2.6
    c1,0,2-0.6,2.5-1.4c0.2-0.3,0.4-0.6,0.4-1c0.1-1.6,0.1-3.2,0.1-4.8c0-3.6,0-7.2,0-10.9l0,0c1.2,0,2.3,0,3.5,0
    c0.1,1.4,0.6,2.8,1.6,3.8c1,1,2.4,1.5,3.8,1.6V18.2z"/>
  </symbol>

  <symbol id="icon-medium" viewBox="0 0 40 40" iconSet="social">
    <title>Medium</title>
    <desc>Medium logo</desc>
    <path d="M20,0C9,0,0,9,0,20s9,20,20,20s20-9,20-20S31,0,20,0z
     M27.8,14.7v10.6c0,0,0,0,0,0.1c0,0.1,0.1,0.3,0.2,0.3l0,0l1.5,1.4v0.3H22v-0.3l1.5-1.5c0.1-0.1,0.1-0.2,0.1-0.4v-8.6l-4.2,10.8
    h-0.6l-4.9-10.8v7.2c0,0,0,0.1,0,0.1c0,0.3,0.1,0.5,0.3,0.7l2,2.4v0.3h-5.6v-0.3l2-2.4c0.2-0.2,0.3-0.4,0.3-0.7c0-0.1,0-0.1,0-0.2
    l0,0v-8.3c0,0,0,0,0-0.1c0-0.2-0.1-0.4-0.2-0.5l0,0l-1.8-2.1v-0.3h5.5l4.2,9.3l3.7-9.3h5.2l0,0.3l-1.5,1.4
    C27.8,14.4,27.7,14.5,27.8,14.7C27.7,14.7,27.8,14.7,27.8,14.7z"/>
  </symbol>

  <symbol id="icon-pinterest" viewBox="0 0 40 40" iconSet="social">
    <title>Pinterest</title>
    <desc>Pinterest logo</desc>
    <path d="M20,0C9,0,0,9,0,20s9,20,20,20s20-9,20-20S31,0,20,0z M21.7,25
    c-1.1,0-2.5-0.6-3.1-1.6c-1,4-0.9,4.6-3.2,7.7l-0.2,0.1L15.1,31c-0.1-0.8-0.2-1.7-0.2-2.5c0-2.7,1.3-6.7,1.9-9.3
    c-0.3-0.7-0.4-1.5-0.4-2.3c0-1.3,0.9-3.1,2.5-3.1c1.1,0,1.7,0.9,1.7,1.9c0,1.7-1.2,3.4-1.2,5c0,1.1,0.9,1.9,2.1,1.9
    c3.1,0,4-4.4,4-6.8c0-3.2-2.2-4.9-5.3-4.9c-3.5,0-6.2,2.5-6.2,6.1c0,1.7,1.1,2.6,1.1,3c0,0.3-0.3,1.6-0.7,1.6c-0.1,0-0.2,0-0.2,0
    c-1.9-0.6-2.6-3.1-2.6-4.9l0,0c0-4.9,4.5-8,9.1-8c4.2,0,8,2.9,8,7.3C28.5,20.3,26.4,25,21.7,25z"/>
  </symbol>

  <symbol id="icon-arrow-right" viewBox="0 0 24 24" iconSet="UI">
    <title>Arrow - Right</title>
    <desc>An arrow pointing right</desc>
    <path d="M21.5,11.6L14.9,5c-0.2-0.2-0.6-0.2-0.8,0c-0.2,0.2-0.2,0.6,0,0.8l5.6,5.6H2.9c-0.3,0-0.6,0.3-0.6,0.6 c0,0.3,0.3,0.6,0.6 0.6h16.9l-5.6,5.6c-0.2,0.2-0.2,0.6,0,0.8c0.1,0.1,0.3,0.2,0.4,0.2c0.1,0,0.3-0.1,0.4-0.2l6.6-6.6 c0.1-0.1,0.2-0.3,0.2-0.4C21.7,11.8,21.7,11.7,21.5,11.6z"/>
  </symbol>

  <symbol id="icon-arrow-left" viewBox="0 0 24 24" iconSet="UI">
    <title>Arrow - Right</title>
    <desc>An arrow pointing left</desc>
    <path d="M21.1,11.4H4.3l5.6-5.6c0.2-0.2,0.2-0.6,0-0.8C9.7,4.8,9.3,4.8,9.1,5l-6.6,6.6c-0.1,0.1-0.2,0.3-0.2,0.4 c0,0.2,0.1,0.3,0.2,0.4L9.1,19c0.1,0.1,0.3,0.2,0.4,0.2s0.3-0.1,0.4-0.2c0.2-0.2,0.2-0.6,0-0.8l-5.6-5.6h16.9c0.3,0,0.6-0.3,0.6-0.6 C21.7,11.7,21.5,11.4,21.1,11.4z"/>
  </symbol>

  <symbol id="icon-checkmark" viewBox="0 0 24 24" iconSet="UI">
    <title>Checkmark</title>
    <desc>An icon of a checkmark in a circle</desc>
	  <path d="M12,1.5C6.2,1.5,1.5,6.2,1.5,12c0,5.8,4.7,10.5,10.5,10.5c5.8,0,10.5-4.7,10.5-10.5C22.5,6.2,17.8,1.5,12,1.5z M12,21.3 c-5.1,0-9.3-4.2-9.3-9.3S6.9,2.7,12,2.7s9.3,4.2,9.3,9.3S17.1,21.3,12,21.3z"/>
	  <path d="M15,9.3l-4.3,5.4l-1.9-1.4c-0.3-0.2-0.6-0.1-0.8,0.1c-0.2,0.3-0.1,0.6,0.1,0.8l2.3,1.8c0.1,0.1,0.2,0.1,0.3,0.1 c0.2,0,0.3-0.1,0.5-0.2L16,10c0.2-0.3,0.2-0.6-0.1-0.8C15.6,9,15.2,9.1,15,9.3z"/>
  </symbol>

  <symbol id="icon-plus" viewBox="0 0 24 24" iconSet="UI">
    <title>Plus</title>
    <desc>An icon of a plus sign in a circle</desc>
    <path d="M12,1.5C6.2,1.5,1.5,6.2,1.5,12c0,5.8,4.7,10.5,10.5,10.5c5.8,0,10.5-4.7,10.5-10.5C22.5,6.2,17.8,1.5,12,1.5z M12,21.3 c-5.1,0-9.3-4.2-9.3-9.3S6.9,2.7,12,2.7s9.3,4.2,9.3,9.3S17.1,21.3,12,21.3z"/>
    <path d="M16.2,11.4h-3.7V7.7c0-0.3-0.3-0.6-0.6-0.6c-0.3,0-0.6,0.3-0.6,0.6v3.7H7.5c-0.3,0-0.6,0.3-0.6,0.6s0.3,0.6,0.6,0.6h3.8 v3.7c0,0.3,0.3,0.6,0.6,0.6c0.3,0,0.6-0.3,0.6-0.6v-3.7h3.7c0.3,0,0.6-0.3,0.6-0.6S16.5,11.4,16.2,11.4z"/>
  </symbol>

  <symbol id="icon-cross" viewBox="0 0 24 24" iconSet="UI">
    <title>Close</title>
    <desc>An icon of an "x" in a circle</desc>
    <path d="M12,1.5C6.2,1.5,1.5,6.2,1.5,12c0,5.8,4.7,10.5,10.5,10.5c5.8,0,10.5-4.7,10.5-10.5C22.5,6.2,17.8,1.5,12,1.5z M12,21.3 c-5.1,0-9.3-4.2-9.3-9.3S6.9,2.7,12,2.7s9.3,4.2,9.3,9.3S17.1,21.3,12,21.3z"/>
	  <path d="M15.3,8.6c-0.2-0.2-0.6-0.2-0.8,0l-2.7,2.6L9.1,8.6c-0.2-0.2-0.6-0.2-0.8,0s-0.2,0.6,0,0.8L11,12l-2.7,2.6 c-0.2,0.2-0.2,0.6,0,0.8c0.1,0.1,0.3,0.2,0.4,0.2c0.1,0,0.3-0.1,0.4-0.2l2.7-2.6l2.7,2.6c0.1,0.1,0.3,0.2,0.4,0.2 c0.2,0,0.3-0.1,0.4-0.2c0.2-0.2,0.2-0.6,0-0.8L12.7,12l2.7-2.6C15.6,9.2,15.6,8.8,15.3,8.6z"/>
  </symbol>

  <symbol id="icon-close" viewBox="0 0 32 32" iconSet="UI">
    <title>Close</title>
    <desc>An icon of an "x"</desc>
    <path d="M31.7,30.3c0.4,0.4,0.4,1,0,1.4C31.5,31.9,31.3,32,31,32s-0.5-0.1-0.7-0.3L16,17.4L1.7,31.7C1.5,31.9,1.3,32,1,32
    s-0.5-0.1-0.7-0.3c-0.4-0.4-0.4-1,0-1.4L14.6,16L0.3,1.7c-0.4-0.4-0.4-1,0-1.4c0.4-0.4,1-0.4,1.4,0L16,14.6L30.3,0.3
    c0.4-0.4,1-0.4,1.4,0c0.4,0.4,0.4,1,0,1.4L17.4,16L31.7,30.3z"/>
  </symbol>

  <symbol id="icon-bell" viewBox="0 0 32 32" iconSet="UI">
    <title>Bell</title>
    <desc>An icon of a notification bell</desc>
    <path d="M32,25c0-9-8-7-8-14c0-0.6-0.1-1.1-0.2-1.5C23.4,6,21,3.1,18,2.3c0-0.1,0-0.3,0-0.4c0-1-0.9-1.9-2-1.9s-2,0.9-2,1.9
    c0,0.1,0,0.3,0,0.4c-3.4,1-6,4.4-6,8.5c0,0.1,0,0.1,0,0.2c0,7-8,5-8,14c0,2.4,5.3,4.4,12.4,4.9c0.7,1.3,2,2.1,3.5,2.1
    s2.9-0.9,3.5-2.1C26.7,29.4,32,27.4,32,25C32,25,32,25,32,25L32,25z M25.8,26.7c-1.7,0.5-3.7,0.8-5.8,1c-0.2-2-1.9-3.6-4-3.6
    s-3.8,1.6-4,3.6c-2.1-0.2-4.1-0.5-5.8-1c-2.3-0.6-3.4-1.3-3.8-1.7c0.4-0.4,1.5-1.1,3.8-1.7c2.7-0.7,6.2-1.1,9.8-1.1s7.1,0.4,9.8,1.1
    c2.3,0.6,3.4,1.3,3.8,1.7C29.2,25.4,28.1,26.1,25.8,26.7L25.8,26.7z"/>
  </symbol>

  <symbol id="icon-notification" viewBox="0 0 32 32" iconSet="UI">
    <title>Notification</title>
    <desc>An icon of an exclaimation mark within a circle.</desc>
    <path d="M16 3c-3.472 0-6.737 1.352-9.192 3.808s-3.808 5.72-3.808 9.192c0 3.472 1.352 6.737 3.808 9.192s5.72 3.808 9.192 3.808c3.472 0 6.737-1.352 9.192-3.808s3.808-5.72 3.808-9.192c0-3.472-1.352-6.737-3.808-9.192s-5.72-3.808-9.192-3.808zM16 0v0c8.837 0 16 7.163 16 16s-7.163 16-16 16c-8.837 0-16-7.163-16-16s7.163-16 16-16zM14 22h4v4h-4zM14 6h4v12h-4z"></path>
  </symbol>

  <symbol id="icon-minus" viewBox="0 0 24 24" iconSet="UI">
    <title>Minus</title>
    <desc>An icon of a minus sign in a circle</desc>
    <path d="M12,1.5C6.2,1.5,1.5,6.2,1.5,12c0,5.8,4.7,10.5,10.5,10.5c5.8,0,10.5-4.7,10.5-10.5C22.5,6.2,17.8,1.5,12,1.5z M12,21.3 c-5.1,0-9.3-4.2-9.3-9.3S6.9,2.7,12,2.7s9.3,4.2,9.3,9.3S17.1,21.3,12,21.3z"/>
	  <path d="M16.2,11.4H7.5c-0.3,0-0.6,0.3-0.6,0.6s0.3,0.6,0.6,0.6h8.7c0.3,0,0.6-0.3,0.6-0.6S16.5,11.4,16.2,11.4z"/>
  </symbol>

  <symbol id="icon-search" viewBox="0 0 24 24" iconSet="UI">
    <title>Search</title>
    <desc>An icon of a magnifying glass</desc>
    <path d="M21.1,19.5l-4.7-4.1c0.2-0.2,0.3-0.5,0.5-0.7c2-3.7,0.7-8.3-2.9-10.3c-1.8-1-3.8-1.2-5.7-0.7C6.2,4.3,4.6,5.6,3.6,7.4 c-2,3.7-0.7,8.3,2.9,10.3c1.1,0.6,2.4,1,3.7,1c0.7,0,1.4-0.1,2.1-0.3c1.3-0.4,2.4-1.1,3.3-2l4.7,4c0.1,0.1,0.2,0.1,0.4,0.1 c0.2,0,0.3-0.1,0.4-0.2C21.4,20.1,21.4,19.7,21.1,19.5z M12,17.2c-1.6,0.5-3.4,0.3-4.8-0.6C4.1,14.9,2.9,11,4.6,7.9 c0.8-1.5,2.2-2.6,3.8-3.1c0.6-0.2,1.2-0.2,1.8-0.2c1.1,0,2.1,0.3,3.1,0.8c3.1,1.7,4.2,5.6,2.5,8.7C15,15.7,13.6,16.7,12,17.2z"/>
  </symbol>

  <symbol id="icon-tooltip" viewBox="0 0 20 20" iconSet="UI">
    <title>Tooltip</title>
    <desc>An icon of a question mark</desc>
    <path d="M10 0C4.486 0 0 4.486 0 10C0 15.514 4.486 20 10 20C15.514 20 20 15.514 20 10C20 4.486 15.514 0 10 0ZM11 16H9V14H11V16ZM11.976 11.115C11.78 11.273 11.591 11.424 11.441 11.574C11.033 11.981 11.001 12.351 11 12.367V12.5H9V12.333C9 12.215 9.029 11.156 10.026 10.159C10.221 9.964 10.463 9.766 10.717 9.56C11.451 8.965 11.933 8.531 11.933 7.933C11.9214 7.42782 11.7125 6.94725 11.3511 6.59412C10.9896 6.24099 10.5043 6.04334 9.99901 6.04347C9.4937 6.0436 9.0085 6.2415 8.64725 6.59482C8.28599 6.94814 8.07736 7.42881 8.066 7.934H6.066C6.066 5.765 7.831 4 10 4C12.169 4 13.934 5.765 13.934 7.934C13.934 9.531 12.755 10.484 11.976 11.115Z"/>
  </symbol>

  <symbol id="icon-play" viewBox="0 0 18 18" iconSet="UI">
    <title>Play</title>
    <desc>An icon of a minus sign in a circle</desc>
    <path d="M16.7,7.2c1,0.6,1.4,1.9,0.8,2.9c-0.2,0.3-0.5,0.6-0.8,0.8l-12,6.9c-1,0.6-2.3,0.2-2.9-0.8
  	c-0.2-0.3-0.3-0.7-0.3-1V2.1C1.5,0.9,2.5,0,3.6,0c0.4,0,0.7,0.1,1,0.3L16.7,7.2z"/>
  </symbol>

  <symbol id="icon-reset" viewBox="0 0 18 18" iconSet="UI">
    <title>Play</title>
    <desc>An icon of a minus sign in a circle</desc>
    <path id="refresh" d="M3.5,10h5A.5.5,0,0,0,9,9.5V9.21a.49.49,0,0,0-.15-.36L7.074,7.07A6.93,6.93,0,0,1,12,5a7,7,0,1,1-7,7.47A.5.5,0,0,0,4.5,12h-1a.52.52,0,0,0-.36.16.5.5,0,0,0-.13.37,9,9,0,1,0,2.62-6.89L4.144,4.15A.49.49,0,0,0,3.794,4H3.5a.5.5,0,0,0-.5.5v5A.5.5,0,0,0,3.5,10Z" transform="translate(-3.004 -3.003)"/>
  </symbol>

  <symbol id="icon-cart" viewBox="0 0 30 30" iconSet="UI">
    <title>Cart</title>
    <desc>An icon of a shopping cart</desc>
    <path d="M27.2775 9.28875C27.1625 9.12259 27.009 8.98678 26.83 8.89295C26.6511 8.79912 26.4521 8.75007 26.25 8.75H9.16625L7.72375 5.28751C7.53461 4.83153 7.21434 4.44199 6.80353 4.16827C6.39273 3.89455 5.90989 3.74897 5.41625 3.75001H2.5V6.25001H5.41625L11.3463 20.4813C11.4412 20.7089 11.6015 20.9034 11.8068 21.0402C12.0121 21.177 12.2533 21.25 12.5 21.25H22.5C23.0213 21.25 23.4875 20.9263 23.6713 20.44L27.4213 10.44C27.4921 10.2508 27.5161 10.0472 27.491 9.84669C27.466 9.64619 27.3927 9.45474 27.2775 9.28875ZM21.6338 18.75H13.3338L10.2088 11.25H24.4463L21.6338 18.75Z"/>
    <path d="M13.125 26.25C14.1605 26.25 15 25.4105 15 24.375C15 23.3395 14.1605 22.5 13.125 22.5C12.0895 22.5 11.25 23.3395 11.25 24.375C11.25 25.4105 12.0895 26.25 13.125 26.25Z"/>
    <path d="M21.875 26.25C22.9105 26.25 23.75 25.4105 23.75 24.375C23.75 23.3395 22.9105 22.5 21.875 22.5C20.8395 22.5 20 23.3395 20 24.375C20 25.4105 20.8395 26.25 21.875 26.25Z"/>
  </symbol>

  <symbol id="icon-cart-alt" viewBox="0 0 30 30" iconSet="UI">
    <title>Cart</title>
    <desc>An icon of a shopping cart</desc>
    <path d="M26.25 4.99998H2.5V7.49998H5.375L9.475 18.75C9.73289 19.4794 10.2101 20.1112 10.8412 20.5588C11.4723 21.0064 12.2263 21.2478 13 21.25H23.75V18.75H13C12.7431 18.7499 12.4925 18.6706 12.2822 18.523C12.072 18.3754 11.9123 18.1666 11.825 17.925L11.25 16.25H22.85C23.3925 16.2492 23.9201 16.0719 24.353 15.745C24.786 15.418 25.1008 14.9591 25.25 14.4375L27.5 6.58748C27.5508 6.42333 27.5672 6.25047 27.5482 6.07969C27.5293 5.90892 27.4753 5.74389 27.3896 5.59492C27.304 5.44594 27.1886 5.31622 27.0506 5.21386C26.9125 5.1115 26.7549 5.03869 26.5875 4.99998C26.4757 4.98178 26.3618 4.98178 26.25 4.99998ZM22.8125 13.75H10.3125L8.0375 7.49998H24.5875L22.8125 13.75Z"/>
    <path d="M13.125 26.25C14.1605 26.25 15 25.4105 15 24.375C15 23.3395 14.1605 22.5 13.125 22.5C12.0895 22.5 11.25 23.3395 11.25 24.375C11.25 25.4105 12.0895 26.25 13.125 26.25Z"/>
    <path d="M20.625 26.25C21.6605 26.25 22.5 25.4105 22.5 24.375C22.5 23.3395 21.6605 22.5 20.625 22.5C19.5895 22.5 18.75 23.3395 18.75 24.375C18.75 25.4105 19.5895 26.25 20.625 26.25Z"/>
  </symbol>

  <symbol id="icon-chevron-down" viewBox="0 0 14 14" iconSet="UI">
    <title>Chevron Down</title>
    <desc>An icon of a chevron pointing down</desc>
    <path d="M11.5,2.8L7,7.3L2.5,2.8L0.5,4.7L7,11.2l6.5-6.5L11.5,2.8z"/>
  </symbol>

  <symbol id="icon-chevron-right" viewBox="0 0 24 24" iconSet="UI">
    <title>Chevron Right</title>
    <desc>An icon of a chevron pointing right</desc>
    <path d="M7.7,23.4L19.1,12L7.7,0.6L4.9,3.4l8.6,8.6l-8.6,8.6L7.7,23.4z"/>
  </symbol>


  <symbol id="icon-triangle-in-circle" viewBox="0 0 20 21" iconSet="UI">
    <title>Triangle in Circle</title>
    <desc>An icon of triangle within a circle</desc>
    <path d="M10 20.5C15.514 20.5 20 16.014 20 10.5C20 4.986 15.514 0.5 10 0.5C4.486 0.5 0 4.986 0 10.5C0 16.014 4.486 20.5 10 20.5ZM8 5.5L14 10.5L8 15.5V5.5Z"/>
  </symbol>

  <symbol id="icon-triangle-in-circle-left" viewBox="0 0 20 21" iconSet="UI">
    <title>Triangle in Circle Left</title>
    <desc>An icon of triangle within a circle</desc>
    <path d="M20,10.5c0-5.5-4.5-10-10-10S0,5,0,10.5s4.5,10,10,10S20,16,20,10.5z M12,15.5l-6-5l6-5V15.5z"/>
  </symbol>


  <symbol id="icon-triangle-down" viewBox="0 0 12 12" iconSet="UI">
    <title>Triangle Down</title>
    <desc>An icon of triangle pointing down</desc>
    <path d="M6,9.5l6-7H0L6,9.5z"/>
  </symbol>

  <symbol id="icon-pin" viewBox="0 0 18 18" iconSet="UI">
    <title>Pin</title>
    <desc>An icon of a map pin.</desc>
      <path d="M9,0.5C7.7,0.5,6.5,1,5.6,2C4.7,3,4.2,4.3,4.2,5.6c0,1.7,1.2,3.6,2.3,5.5c0.7,1,1.2,2.1,1.7,3.2
      c0,0,0,0.1,0,0.1v2.2c0,0.2,0.1,0.5,0.2,0.6c0.2,0.2,0.4,0.3,0.6,0.3c0.2,0,0.4-0.1,0.6-0.3c0.2-0.2,0.2-0.4,0.2-0.6v-2.2
      c0,0,0-0.1,0-0.1c0.5-1.1,1.1-2.2,1.7-3.2c1.1-1.9,2.3-3.8,2.3-5.5c0-0.7-0.1-1.3-0.4-2s-0.6-1.2-1-1.7c-0.4-0.5-1-0.9-1.6-1.1
      C10.3,0.6,9.6,0.5,9,0.5L9,0.5z M9,8.1C8.5,8.1,8.1,8,7.7,7.7C7.3,7.4,7,7,6.8,6.6c-0.2-0.5-0.2-1-0.1-1.4C6.8,4.7,7,4.2,7.4,3.9
      c0.3-0.3,0.7-0.6,1.2-0.7c0.5-0.1,0.9,0,1.3,0.1c0.4,0.2,0.8,0.5,1,0.9c0.3,0.4,0.4,0.9,0.4,1.4c0,0.7-0.2,1.3-0.7,1.8
      C10.2,7.9,9.6,8.1,9,8.1z"/>
  </symbol>

  <symbol id="icon-filters" viewBox="0 0 36 36" iconSet="UI">
    <title>Filters</title>
    <desc>An icon of lines with circles indicating a filter.</desc>
    <path d="M14.2,11.2c0-2.4-1.6-4.4-3.8-5V2.9h-3v3.2c-2.2,0.7-3.8,2.6-3.8,5s1.6,4.4,3.8,5v16.7h3V16.2
      C12.7,15.5,14.2,13.5,14.2,11.2z M6.8,11.2c0-1.2,1-2.2,2.2-2.2s2.2,1,2.2,2.2s-1,2.2-2.2,2.2S6.8,12.4,6.8,11.2z M23.2,24.7
      c0-2.4-1.6-4.4-3.8-5V2.9h-3v16.7c-2.2,0.7-3.8,2.6-3.8,5s1.6,4.4,3.8,5v3.2h3v-3.2C21.7,29,23.2,27,23.2,24.7z M15.8,24.7
      c0-1.2,1-2.2,2.2-2.2s2.2,1,2.2,2.2s-1,2.2-2.2,2.2S15.8,25.9,15.8,24.7z"/>
    <path d="M28.5,19.2c2.2-0.7,3.8-2.6,3.8-5s-1.6-4.4-3.8-5V2.9h-3v6.2c-2.2,0.7-3.8,2.6-3.8,5s1.6,4.4,3.8,5
      v13.9h3V19.2z M24.8,14.2c0-1.2,1-2.2,2.2-2.2s2.2,1,2.2,2.2s-1,2.2-2.2,2.2S24.8,15.4,24.8,14.2z"/>
  </symbol>

  <symbol id="icon-eye" viewBox="0 0 32 32" iconSet="UI">
    <title>Eye</title>
    <desc>An icon of an eye.</desc>
    <path d="M0.1,15.5c-0.2,0.3-0.2,0.7,0,1.1c0,0,0.5,1,1.5,2.3C2.2,19.6,3,20.6,4,21.5C5.2,22.7,6.6,24,8.4,25
      c2.1,1.2,4.7,2.1,7.6,2.1s5.5-0.9,7.6-2.1c1.8-1,3.2-2.2,4.4-3.4c1-1,1.7-1.9,2.3-2.7c1-1.3,1.5-2.3,1.5-2.3c0.2-0.3,0.2-0.7,0-1.1
      c0,0-0.5-1-1.5-2.3c-0.6-0.8-1.4-1.8-2.3-2.7C26.8,9.3,25.4,8,23.6,7c-2.1-1.2-4.7-2.1-7.6-2.1S10.5,5.8,8.4,7C6.6,8,5.2,9.3,4,10.5
      c-1,1-1.7,1.9-2.3,2.7C0.7,14.5,0.1,15.5,0.1,15.5L0.1,15.5z M2.9,16c0.2-0.3,0.5-0.8,1-1.4c0.5-0.7,1.3-1.6,2.1-2.5
      C7,11,8.3,10,9.8,9.1c1.8-1,3.9-1.7,6.2-1.7s4.4,0.7,6.2,1.7c1.5,0.9,2.8,1.9,3.9,3c0.9,0.9,1.6,1.7,2.1,2.5c0.4,0.6,0.8,1.1,1,1.4
      c-0.2,0.3-0.5,0.8-1,1.4c-0.5,0.7-1.3,1.6-2.1,2.5c-1.1,1.1-2.4,2.2-3.9,3c-1.8,1-3.9,1.7-6.2,1.7s-4.4-0.7-6.2-1.7
      C8.3,22,7,21,5.9,19.9c-0.9-0.9-1.6-1.7-2.1-2.5C3.4,16.8,3.1,16.3,2.9,16L2.9,16z"/>
    <path d="M19.1,15.2c-1.7,0-3.1-1.4-3.1-3.1c0-0.5,0.1-1,0.4-1.5c-0.1,0-0.3,0-0.4,0c-2.9,0-5.3,2.4-5.3,5.3c0,2.9,2.4,5.3,5.3,5.3
      c2.9,0,5.3-2.4,5.3-5.3c0-0.5-0.1-1-0.2-1.5C20.6,15,19.9,15.2,19.1,15.2z"/>
  </symbol>


  <symbol id="icon-lock" viewBox="0 0 12 12" iconSet="UI-profile">
    <title>Lock</title>
    <desc>An icon of a padlock.</desc>
    <path d="M9.7,4.7H9.4V3.4c0-0.9-0.4-1.8-1-2.4C7.8,0.4,6.9,0,6,0S4.2,0.4,3.6,1c-0.6,0.6-1,1.5-1,2.4v1.4H2.3
      C2,4.7,1.7,4.9,1.5,5C1.4,5.2,1.3,5.5,1.3,5.7V11c0,0.3,0.1,0.5,0.3,0.7C1.7,11.9,2,12,2.3,12h7.5c0.3,0,0.5-0.1,0.7-0.3
      c0.2-0.2,0.3-0.4,0.3-0.7V5.7c0-0.3-0.1-0.5-0.3-0.7C10.3,4.9,10,4.7,9.7,4.7z M6,9.2c-0.2,0-0.4-0.1-0.6-0.2C5.3,9,5.2,8.8,5.1,8.6
      C5,8.4,5,8.2,5,8.1c0-0.2,0.1-0.4,0.3-0.5c0.1-0.1,0.3-0.2,0.5-0.3c0.2,0,0.4,0,0.6,0.1c0.2,0.1,0.3,0.2,0.4,0.4
      C6.9,7.9,7,8.1,7,8.2C7,8.5,6.9,8.8,6.7,9C6.5,9.1,6.3,9.2,6,9.2z M8.1,4.5c0,0.1,0,0.1-0.1,0.2c0,0-0.1,0.1-0.2,0.1H4.1
      c-0.1,0-0.1,0-0.2-0.1S3.9,4.6,3.9,4.5V3.4c0-0.6,0.2-1.1,0.6-1.5C4.9,1.5,5.4,1.2,6,1.2s1.1,0.2,1.5,0.6c0.4,0.4,0.6,0.9,0.6,1.5
      V4.5z"/>
  </symbol>

  <symbol id="icon-check" viewBox="0 0 32 32" iconSet="UI-profile">
    <title>Check</title>
    <desc>An icon of a checkmark.</desc>
    <path d="M10.4,28.1L10.4,28.1c-0.7,0-1.4-0.3-1.9-0.8l-7.7-7.7c-1-1-1-2.7,0-3.8c1-1,2.7-1,3.8,0l5.8,5.8L27.4,4.6
    c1-1,2.7-1,3.8,0c1,1,1,2.7,0,3.8L12.3,27.4C11.8,27.9,11.1,28.1,10.4,28.1z"/>
  </symbol>

  <symbol id="icon-edit" viewBox="0 0 12 12" iconSet="UI-profile">
    <title>Edit</title>
    <desc>An icon of a pencil.</desc>
    <path d="M7.5,2C7.5,2,7.5,1.9,7.5,2C7.4,1.9,7.4,1.9,7.4,1.9c-0.1,0-0.1,0-0.2,0.1L1.7,7.5c0,0,0,0.1-0.1,0.1
      c0,0,0,0.1,0,0.1c0,0,0,0.1,0,0.1c0,0,0,0.1,0.1,0.1l2.5,2.5c0,0,0.1,0.1,0.2,0.1c0,0,0.1,0,0.1,0c0,0,0.1,0,0.1-0.1L10,4.8
      c0,0,0.1-0.1,0.1-0.2s0-0.1-0.1-0.2L7.5,2z"/>
    <path d="M1.2,8.4c0,0-0.1-0.1-0.1-0.1c0,0-0.1,0-0.1,0c0,0-0.1,0-0.1,0.1c0,0-0.1,0.1-0.1,0.1L0,11.7c0,0,0,0.1,0,0.1
      c0,0,0,0.1,0.1,0.1c0,0,0.1,0.1,0.1,0.1s0.1,0,0.1,0l3.2-0.8c0,0,0.1,0,0.1-0.1c0,0,0.1-0.1,0.1-0.1c0,0,0-0.1,0-0.1
      c0,0,0-0.1-0.1-0.1L1.2,8.4z"/>
    <path d="M11.6,1.4l-1.1-1.1C10.3,0.1,10,0,9.7,0C9.3,0,9,0.1,8.8,0.4L8.1,1.1c0,0,0,0-0.1,0.1c0,0,0,0.1,0,0.1
      c0,0,0,0.1,0,0.1c0,0,0,0.1,0.1,0.1l2.5,2.5c0,0,0,0,0.1,0.1c0,0,0.1,0,0.1,0c0,0,0.1,0,0.1,0c0,0,0.1,0,0.1-0.1l0.7-0.7
      C11.9,3,12,2.7,12,2.3C12,2,11.9,1.7,11.6,1.4z"/>
  </symbol>

  <symbol id="icon-refresh" viewBox="0 0 12 12" iconSet="UI-profile">
    <title>Refresh</title>
    <desc>An icon of a refresh symbol.</desc>
    <path d="M5.29994 10.1791C5.21293 10.1614 5.12328 10.1609 5.0361 10.1778C4.94892 10.1947 4.86591 10.2286 4.79183 10.2776C4.64222 10.3765 4.53802 10.5307 4.50216 10.7065C4.4663 10.8822 4.50171 11.065 4.60061 11.2146C4.6995 11.3642 4.85378 11.4684 5.02951 11.5043C5.42096 11.5856 5.81962 11.6273 6.21943 11.6287C7.465 11.6214 8.67532 11.2144 9.67214 10.4675C10.669 9.72056 11.3996 8.67329 11.7564 7.47989C12.1132 6.2865 12.0773 5.01006 11.654 3.83859C11.2307 2.66712 10.4425 1.66254 9.40527 0.972805C8.36808 0.283072 7.1368 -0.055351 5.89279 0.00738158C4.64878 0.0701141 3.4578 0.530685 2.49525 1.32126C1.53271 2.11184 0.849486 3.19062 0.546217 4.39873C0.242948 5.60684 0.335662 6.88041 0.810704 8.03186C0.821916 8.05961 0.823194 8.09038 0.814324 8.11896C0.805453 8.14754 0.786978 8.17218 0.762026 8.18871L0.221154 8.58355C0.138218 8.64433 0.0743264 8.72749 0.0369663 8.82328C-0.000393761 8.91908 -0.00967398 9.02354 0.0102134 9.12442C0.0319661 9.22666 0.0828777 9.3204 0.156789 9.39432C0.230701 9.46823 0.324446 9.51914 0.426685 9.54089L2.59017 10.0006H2.70376C2.80739 10.0004 2.90877 9.97033 2.99583 9.91409C3.108 9.8403 3.1904 9.72916 3.2284 9.60039L3.73682 7.22055C3.75654 7.11476 3.74425 7.0055 3.70153 6.90673C3.6588 6.80796 3.58759 6.72418 3.497 6.66611C3.4064 6.60804 3.30054 6.57831 3.19296 6.58072C3.08538 6.58314 2.98096 6.61759 2.89306 6.67968L2.15207 7.22055C2.13367 7.23004 2.11327 7.23499 2.09257 7.23499C2.07187 7.23499 2.05147 7.23004 2.03308 7.22055C2.01217 7.21532 1.99307 7.2045 1.97783 7.18926C1.96259 7.17402 1.95177 7.15492 1.94654 7.13401C1.65635 6.19773 1.68214 5.192 2.01993 4.27183C2.35772 3.35165 2.98877 2.56811 3.8158 2.04196C4.64284 1.51581 5.61996 1.27626 6.59658 1.36022C7.57319 1.44419 8.49509 1.84701 9.22018 2.50661C9.94527 3.16621 10.4333 4.04597 10.6091 5.0103C10.7848 5.97463 10.6386 6.97 10.1928 7.843C9.74709 8.71601 9.02661 9.41819 8.14242 9.84132C7.25824 10.2645 6.25943 10.3851 5.29994 10.1845V10.1791Z"/>
  </symbol>

  <symbol id="icon-history" viewBox="0 0 12 12" iconSet="UI-profile">
    <title>History</title>
    <desc>An icon of a clock.</desc>
    <path d="M2.8,1.2c1-0.6,2.1-1,3.2-1c1.5,0,3,0.6,4.1,1.7C11.2,3,11.8,4.5,11.8,6c0,1.1-0.3,2.3-1,3.2
      c-0.6,1-1.5,1.7-2.6,2.1c-1.1,0.4-2.2,0.6-3.4,0.3c-1.1-0.2-2.2-0.8-3-1.6c-0.8-0.8-1.4-1.8-1.6-3C0.1,6,0.2,4.8,0.6,3.8
      C1.1,2.7,1.8,1.8,2.8,1.2z M3.3,10C4.1,10.6,5,10.8,6,10.8c1.3,0,2.5-0.5,3.4-1.4c0.9-0.9,1.4-2.1,1.4-3.4c0-1-0.3-1.9-0.8-2.7
      C9.5,2.5,8.7,1.9,7.9,1.5C7,1.2,6,1.1,5.1,1.3C4.1,1.4,3.3,1.9,2.6,2.6S1.4,4.1,1.3,5.1S1.2,7,1.5,7.9C1.9,8.7,2.5,9.5,3.3,10z
       M6.2,5.8l2.2,2.1c0,0,0.1,0.1,0.1,0.1c0,0.1,0,0.1,0.1,0.2c0,0.1,0,0.1,0,0.2c0,0.1-0.1,0.1-0.1,0.2c0,0-0.1,0.1-0.2,0.1
      c-0.1,0-0.1,0-0.2,0c-0.1,0-0.1,0-0.2,0C8,8.6,7.9,8.6,7.8,8.6L5.4,6.4c0,0-0.1-0.1-0.1-0.2c0-0.1,0-0.1,0-0.2V3.3
      c0-0.1,0.1-0.3,0.1-0.3c0.1-0.1,0.2-0.1,0.3-0.1C5.9,2.9,6,2.9,6.1,3c0.1,0.1,0.1,0.2,0.1,0.3V5.8z"/>
    <g>
      <path d="M10.2,1.8C9.1,0.6,7.6,0,6,0C4.8,0,3.7,0.4,2.7,1c-1,0.6-1.8,1.6-2.2,2.7C0,4.8-0.1,6,0.1,7.2
        c0.2,1.2,0.8,2.2,1.7,3.1c0.8,0.8,1.9,1.4,3.1,1.6C6,12.1,7.2,12,8.3,11.5c1.1-0.5,2-1.2,2.7-2.2c0.7-1,1-2.2,1-3.3
        C12,4.4,11.4,2.9,10.2,1.8z M9.3,9.3c-0.9,0.9-2,1.4-3.3,1.4c-0.9,0-1.8-0.3-2.6-0.8C2.7,9.4,2.1,8.6,1.7,7.8
        C1.4,6.9,1.3,6,1.4,5.1c0.2-0.9,0.6-1.7,1.3-2.4c0.6-0.7,1.5-1.1,2.4-1.3C6,1.3,6.9,1.4,7.8,1.7c0.8,0.3,1.6,1,2.1,1.7
        c0.5,0.8,0.8,1.7,0.8,2.6C10.6,7.2,10.2,8.4,9.3,9.3z"/>
      <path d="M8.8,8.2c0,0.1,0,0.2,0,0.3c0,0.1-0.1,0.2-0.1,0.2C8.6,8.7,8.5,8.8,8.5,8.8S8.3,8.9,8.2,8.9
        c-0.1,0-0.2,0-0.3,0c-0.1,0-0.2-0.1-0.2-0.1L5.3,6.5v0C5.2,6.4,5.2,6.4,5.1,6.3c0-0.1-0.1-0.2-0.1-0.3V3.3c0-0.2,0.1-0.4,0.2-0.5
        c0.1-0.1,0.3-0.2,0.5-0.2s0.3,0.1,0.5,0.2C6.4,3,6.4,3.2,6.4,3.3v2.4l2.2,2c0.1,0.1,0.1,0.1,0.2,0.2C8.8,8,8.8,8.1,8.8,8.2z"/>
    </g>
  </symbol>

  <symbol id="icon-deactivate" viewBox="0 0 20 20" iconSet="UI-profile">
    <title>Deactivate</title>
    <desc>An icon of account deactivation.</desc>
    <path d="M11.7,6.2C10.9,5.9,10,5.8,9.2,6C8.3,6.1,7.5,6.6,6.9,7.2s-1,1.4-1.2,2.2c-0.2,0.8-0.1,1.7,0.2,2.5
      c0.3,0.8,0.9,1.5,1.6,2c0.7,0.5,1.6,0.7,2.4,0.7c1.2,0,2.3-0.5,3.1-1.3c0.8-0.8,1.3-1.9,1.3-3.1c0-0.9-0.3-1.7-0.7-2.4
      C13.1,7.1,12.5,6.6,11.7,6.2z M13,10.6c-0.1,0.1-0.3,0.2-0.4,0.2H7.4c-0.2,0-0.3-0.1-0.4-0.2c-0.1-0.1-0.2-0.3-0.2-0.4
      c0-0.2,0.1-0.3,0.2-0.4c0.1-0.1,0.3-0.2,0.4-0.2h5.3c0.2,0,0.3,0.1,0.4,0.2c0.1,0.1,0.2,0.3,0.2,0.4C13.2,10.4,13.1,10.5,13,10.6z"
      />
    <path d="M10,0.2c-5.5,0-10,4.5-10,10c0,5.5,4.5,10,10,10s10-4.5,10-10C20,4.7,15.5,0.2,10,0.2z M14.6,13.3
      c-0.6,0.9-1.5,1.6-2.5,2c-1,0.4-2.1,0.5-3.2,0.3c-1.1-0.2-2-0.7-2.8-1.5c-0.8-0.8-1.3-1.7-1.5-2.8c-0.2-1.1-0.1-2.2,0.3-3.2
      c0.4-1,1.1-1.9,2-2.5c0.9-0.6,2-0.9,3.1-0.9c1.5,0,2.9,0.6,3.9,1.6c1,1,1.6,2.4,1.6,3.9C15.5,11.3,15.2,12.4,14.6,13.3z"/>
  </symbol>

  <symbol id="icon-delete" viewBox="0 0 20 20" iconSet="UI-profile">
    <title>Delete</title>
    <desc>An icon of account deletion.</desc>
    <path d="M11.2,5H8.8C8.7,5,8.6,5,8.6,5.1S8.5,5.2,8.5,5.2v0.6c0,0,0,0.1,0,0.1s0.1,0,0.1,0h2.8c0,0,0.1,0,0.1,0
      c0,0,0-0.1,0-0.1V5.2c0-0.1,0-0.1-0.1-0.2C11.4,5,11.3,5,11.2,5z"/>
    <path d="M8.8,9.4c-0.1,0-0.2,0-0.3,0.1C8.4,9.6,8.4,9.7,8.4,9.8v4.5c0,0.1,0,0.2,0.1,0.3c0.1,0.1,0.2,0.1,0.3,0.1
      s0.2,0,0.3-0.1c0.1-0.1,0.1-0.2,0.1-0.3V9.8c0-0.1,0-0.2-0.1-0.3C8.9,9.4,8.8,9.4,8.8,9.4z"/>
    <path d="M11.2,9.4c-0.1,0-0.2,0-0.3,0.1c-0.1,0.1-0.1,0.2-0.1,0.3v4.5c0,0.1,0,0.2,0.1,0.3c0.1,0.1,0.2,0.1,0.3,0.1
      s0.2,0,0.3-0.1c0.1-0.1,0.1-0.2,0.1-0.3V9.8c0-0.1,0-0.2-0.1-0.3C11.4,9.4,11.3,9.4,11.2,9.4z"/>
    <path d="M10,0C4.5,0,0,4.5,0,10s4.5,10,10,10s10-4.5,10-10S15.5,0,10,0z M14,15c0,0.3-0.1,0.5-0.3,0.7S13.3,16,13,16H7
      c-0.3,0-0.5-0.1-0.7-0.3C6.1,15.5,6,15.3,6,15V8c0-0.1,0-0.1,0.1-0.2s0.1-0.1,0.2-0.1h7.5c0.1,0,0.1,0,0.2,0.1C14,7.9,14,7.9,14,8
      V15z M15.4,6.9C15.3,6.9,15.1,7,15,7H5C4.9,7,4.7,6.9,4.6,6.9C4.6,6.8,4.5,6.6,4.5,6.5s0.1-0.3,0.1-0.4C4.7,6.1,4.9,6,5,6h2.4
      c0,0,0.1,0,0.1,0s0-0.1,0-0.1V5.2c0-0.3,0.1-0.6,0.4-0.9C8.1,4.1,8.4,4,8.8,4h2.5c0.3,0,0.6,0.1,0.9,0.4c0.2,0.2,0.4,0.6,0.4,0.9
      v0.6c0,0,0,0.1,0,0.1c0,0,0.1,0,0.1,0H15c0.1,0,0.3,0.1,0.4,0.1c0.1,0.1,0.1,0.2,0.1,0.4S15.4,6.8,15.4,6.9z"/>
  </symbol>

  <symbol id="icon-benefit-1" viewBox="0 0 70 70" iconSet="benefits">
    <title>Benefit 1</title>
    <desc>An icon of a benefit</desc>
    <path d="M53,34.8c-1.1-2.6-1.8-4.5-1.8-7c0-1.9,0.5-4.2,1.1-6.7c0.2-0.8,0.4-1.7,0.6-2.6c0,0,0-0.1,0-0.1
      c0.5-2.3,0.9-4.7,0.9-7.2c0-0.7-0.6-1.2-1.2-1.2s-1.2,0.6-1.2,1.2c0,1.9-0.3,3.8-0.6,5.7c-2.8-0.1-6.1-0.8-9.1-1.5
      c-2.7-0.6-5-1.1-6.5-1.1s-3.9,0.5-6.5,1.1c-3,0.7-6.2,1.4-9.1,1.5c-0.4-1.9-0.6-3.8-0.6-5.7c0-0.7-0.6-1.2-1.2-1.2
      s-1.2,0.6-1.2,1.2c0,2.5,0.4,4.9,0.9,7.2c0.2,0.9,0.4,1.8,0.6,2.6c0.6,2.5,1.1,4.8,1.1,6.7c0,2.5-0.8,4.4-1.8,7
      c-1.8,4.4-4.3,10.4-4.3,23.7c0,0.7,0.6,1.2,1.2,1.2s1.2-0.6,1.2-1.2c0-3.1,0.1-5.8,0.4-8.1c3.1,0.7,11.3,2.4,19.4,2.4
      s16.2-1.7,19.4-2.4c0.2,2.3,0.4,5,0.4,8.1c0,0.7,0.6,1.2,1.2,1.2s1.2-0.6,1.2-1.2C57.2,45.2,54.8,39.2,53,34.8z M35,50.2
      c-8,0-16.2-1.7-19.1-2.4c0.8-5.8,2.3-9.3,3.4-12.1c1.1-2.6,2-4.9,2-7.9c0-2.2-0.6-4.7-1.2-7.3c-0.1-0.4-0.2-0.8-0.3-1.1
      c2.9-0.2,6.2-0.9,9.1-1.5c2.4-0.5,4.7-1,6-1c1.3,0,3.6,0.5,6,1c2.9,0.6,6.1,1.3,9.1,1.5c-0.1,0.4-0.2,0.8-0.3,1.1
      c-0.6,2.6-1.2,5.1-1.2,7.3c0,3,0.9,5.3,2,7.9c1.2,2.8,2.6,6.3,3.4,12.1C51.2,48.5,43,50.2,35,50.2z"/>
    <path d="M42.9,38.3l-7,7c-0.1,0.1-0.3,0.2-0.4,0.3c-0.1,0.1-0.3,0.1-0.5,0.1s-0.3,0-0.5-0.1c-0.2-0.1-0.3-0.2-0.4-0.3
      h0l-7-7c-0.5-0.5-0.5-1.3,0-1.8c0.5-0.5,1.3-0.5,1.8,0l4.9,4.9v-18c0-0.7,0.6-1.2,1.2-1.2s1.2,0.6,1.2,1.2v18l4.9-4.9
      c0.5-0.5,1.3-0.5,1.8,0C43.4,37.1,43.4,37.8,42.9,38.3z"/>
  </symbol>

  <symbol id="icon-benefit-2" viewBox="0 0 70 70" iconSet="benefits">
    <title>Benefit 2</title>
    <desc>An icon of a benefit</desc>
    <path d="M63.9,32.8l-5,5c-0.2,0.2-0.6,0.4-0.9,0.4c-0.3,0-0.6-0.1-0.8-0.3l0,0L57,37.7l-4.9-4.9c-0.5-0.5-0.5-1.3,0-1.8
      s1.3-0.5,1.8,0l2.8,2.8C56.2,22.3,46.6,13.2,35,13.2c-9.8,0-18.4,6.6-21,16c-0.2,0.7-0.9,1.1-1.5,0.9c-0.7-0.2-1.1-0.9-0.9-1.5
      C14.5,18,24.1,10.7,35,10.7C48,10.7,58.7,21,59.2,34l2.9-2.9c0.5-0.5,1.3-0.5,1.8,0C64.4,31.5,64.4,32.3,63.9,32.8z"/>
    <path d="M58.4,41.3C55.5,51.8,45.9,59.2,35,59.2c-13,0-23.7-10.4-24.2-23.3l-2.9,2.9C7.6,39,7.3,39.2,7,39.2
      S6.4,39,6.1,38.8c-0.5-0.5-0.5-1.3,0-1.8l5-5c0.4-0.5,1.2-0.5,1.7,0l0,0l5,5c0.5,0.5,0.5,1.3,0,1.8s-1.3,0.5-1.8,0L13.2,36
      C13.8,47.5,23.4,56.7,35,56.7c9.8,0,18.4-6.6,21-16c0.2-0.7,0.9-1.1,1.5-0.9C58.2,40,58.6,40.7,58.4,41.3z"/>
    <path d="M47,38.2c-1.4,0-2.7-1-3.1-2.4l-2-7c-0.2-0.8-0.1-1.7,0.3-2.5c0.4-0.8,1.1-1.3,1.9-1.5c0.3-0.1,0.6-0.1,0.9-0.1
      c1.4,0,2.7,1,3.1,2.4l2,7c0.5,1.7-0.5,3.5-2.2,4C47.6,38.1,47.3,38.2,47,38.2z M45,27.1c-0.1,0-0.1,0-0.2,0
      c-0.2,0.1-0.3,0.2-0.4,0.4c-0.1,0.2-0.1,0.4-0.1,0.6l2,7c0.1,0.4,0.5,0.6,0.9,0.5s0.6-0.5,0.5-0.9l-2-7C45.6,27.4,45.3,27.1,45,27.1
      z"/>
    <path d="M35,53.2c-0.8,0-1.5-0.3-2.1-0.8l-6-5c-1.4-1.2-1.6-3.2-0.4-4.6c0.6-0.7,1.5-1.2,2.5-1.2c0.8,0,1.5,0.3,2.1,0.8
      l6,5c1.4,1.2,1.6,3.2,0.4,4.6c-0.6,0.7-1.4,1.1-2.4,1.2C35.1,53.1,35,53.2,35,53.2z M29,44.1c-0.2,0-0.4,0.1-0.6,0.3
      c-0.3,0.3-0.2,0.8,0.1,1.1l6,5c0.1,0.1,0.3,0.2,0.4,0.2c0.2,0,0.5-0.1,0.6-0.3c0.3-0.3,0.2-0.8-0.1-1.1l-6-5
      C29.3,44.2,29.1,44.1,29,44.1z"/>
    <path d="M23,40.2c-0.3,0-0.6,0-0.9-0.1c-0.8-0.2-1.5-0.8-2-1.6s-0.5-1.6-0.3-2.5l2-7c0.5-1.7,2.2-2.7,4-2.2
      c1.7,0.5,2.7,2.3,2.2,4l-2,7C25.7,39.2,24.4,40.2,23,40.2z M25,29.1c-0.3,0-0.6,0.2-0.7,0.5l-2,7c-0.1,0.2,0,0.4,0.1,0.6
      c0.1,0.2,0.3,0.3,0.5,0.4c0.4,0.1,0.8-0.1,0.9-0.5l2-7c0.1-0.4-0.1-0.8-0.5-0.9C25.1,29.2,25.1,29.1,25,29.1z"/>
    <path d="M45,47.2L45,47.2c-0.4,0-0.7-0.1-1.1-0.2l-6-2c-0.8-0.3-1.5-0.9-1.9-1.6c-0.4-0.8-0.5-1.7-0.2-2.5
      c0.4-1.3,1.7-2.2,3.1-2.2c0.3,0,0.7,0.1,1,0.2l6,2c0.8,0.3,1.5,0.9,1.9,1.6c0.4,0.8,0.5,1.7,0.2,2.5C47.6,46.3,46.4,47.2,45,47.2z
       M39,41.1c-0.3,0-0.6,0.2-0.7,0.5c-0.1,0.4,0.1,0.8,0.5,0.9l6,2c0.1,0,0.2,0,0.2,0l0,0c0.3,0,0.6-0.2,0.7-0.5
      c0.1-0.4-0.1-0.8-0.5-0.9l-6-2C39.2,41.2,39.1,41.1,39,41.1z"/>
    <path d="M32,41.2h-0.1c-0.9,0-1.8-0.5-2.4-1.2s-0.8-1.5-0.7-2.4c0.1-0.9,0.5-1.6,1.2-2.2l6-5c0.6-0.5,1.3-0.8,2.1-0.8
      c1,0,1.9,0.4,2.5,1.2c0.6,0.7,0.8,1.5,0.7,2.4s-0.5,1.6-1.2,2.2l-6,5C33.5,40.9,32.8,41.2,32,41.2z M38,32.2c-0.1,0-0.3,0-0.5,0.2
      l-6,5c-0.2,0.1-0.3,0.3-0.3,0.5s0,0.4,0.2,0.6c0.2,0.2,0.4,0.3,0.6,0.3c0.1,0,0.3-0.1,0.4-0.2l6-5c0.2-0.1,0.3-0.3,0.3-0.5
      s0-0.4-0.2-0.5C38.4,32.2,38.2,32.2,38,32.2z"/>
    <path d="M37,27.6c-0.4,0-0.7-0.1-1.1-0.2l-7-2.5c-0.8-0.3-1.5-0.9-1.9-1.7c-0.4-0.8-0.4-1.7-0.1-2.5
      c0.5-1.3,1.7-2.2,3.1-2.2c0.4,0,0.7,0.1,1.1,0.2l7,2.5c0.8,0.3,1.5,0.9,1.9,1.7s0.4,1.7,0.1,2.5C39.6,26.7,38.4,27.6,37,27.6z
       M30,21.1c-0.3,0-0.6,0.2-0.7,0.5c-0.1,0.2-0.1,0.4,0,0.6s0.2,0.3,0.4,0.4l7,2.5c0.4,0.1,0.8-0.1,1-0.5c0.1-0.2,0.1-0.4,0-0.6
      s-0.2-0.3-0.4-0.4l-7-2.5C30.2,21.2,30.1,21.1,30,21.1z"/>
  </symbol>

  <symbol id="icon-benefit-3" viewBox="0 0 70 70" iconSet="benefits">
    <title>Benefit 3</title>
    <desc>An icon of a benefit</desc>
    <path d="M17.6,31.7c-0.4,0-0.8-0.2-1.1-0.6c-0.4-0.6-0.2-1.4,0.4-1.7l8.1-4.8c0.6-0.4,1.4-0.2,1.7,0.4
      c0.4,0.6,0.2,1.4-0.4,1.7l-8.1,4.8C18,31.7,17.8,31.7,17.6,31.7z"/>
    <path d="M25.7,46.3c-0.2,0-0.4-0.1-0.6-0.2L17,41.3c-0.6-0.4-0.8-1.1-0.4-1.7c0.4-0.6,1.1-0.8,1.7-0.4l8.1,4.8
      c0.6,0.4,0.8,1.1,0.4,1.7C26.6,46.1,26.1,46.3,25.7,46.3z"/>
    <path d="M33.8,41.5L33.8,41.5c-0.7,0-1.3-0.6-1.2-1.3l0-9.8c0-0.7,0.6-1.2,1.2-1.2h0c0.7,0,1.2,0.6,1.2,1.3l0,9.8
      C35.1,40.9,34.5,41.5,33.8,41.5z"/>
    <path d="M59.4,31.7c-0.2,0-0.4-0.1-0.6-0.2l-8.1-4.8c-0.6-0.4-0.8-1.1-0.4-1.7c0.4-0.6,1.1-0.8,1.7-0.4l8.1,4.8
      c0.6,0.4,0.8,1.1,0.4,1.7C60.2,31.5,59.8,31.7,59.4,31.7z"/>
    <path d="M64.6,26.8l-12.8-7.5c-0.4-0.2-0.9-0.2-1.3,0l-12.1,7.2L27,19.6V11c0-0.7-0.6-1.2-1.2-1.2
      c-0.7,0-1.2,0.6-1.2,1.2v8.6l-12.1,7.2c-0.4,0.2-0.6,0.6-0.6,1.1v14.5l-6.5,4.8c-0.5,0.4-0.7,1.2-0.2,1.8c0.2,0.3,0.6,0.5,1,0.5
      c0.3,0,0.5-0.1,0.8-0.2l6.3-4.7l12,7.1c0.2,0.1,0.4,0.2,0.6,0.2c0.2,0,0.4-0.1,0.6-0.2l12.1-7.2L50,51.2v8.6c0,0.7,0.6,1.2,1.2,1.2
      s1.2-0.6,1.2-1.2v-8.6L64.6,44c0.4-0.2,0.6-0.6,0.6-1.1V27.8C65.2,27.4,65,27,64.6,26.8z M37.2,42.2L25.7,49l-11.5-6.8V28.5
      l11.5-6.8l11.5,6.8V42.2z M62.8,42.2L51.2,49l-11.5-6.8V28.5l11.5-6.8l11.5,6.8V42.2z"/>
  </symbol>

</svg>