<svg version="1.1" role="img" xmlns="http://www.w3.org/2000/svg" xmlns:xlink="http://www.w3.org/1999/xlink" x="0px" y="0px" width="817px" height="357.5px" viewBox="0 0 817 357.5" style="enable-background:new 0 0 817 357.5;" xml:space="preserve">
	<style>
		.logo__outline {
		  fill: none;
	    stroke-width: 8;
	    stroke-linejoin: round;
	    stroke-miterlimit: 10;
	    stroke: #20a280;
		}
	</style>
	<path class="logo__outline" d="M803.8,357.5H13.2c-7.3,0-13.2-5.9-13.2-13.2v-331C0,5.9,5.9,0,13.2,0h790.5c7.3,0,13.2,5.9,13.2,13.2v331
		C817,351.5,811.1,357.5,803.8,357.5z M13.2,8C10.4,8,8,10.4,8,13.2v331c0,2.9,2.4,5.2,5.2,5.2h790.5c2.9,0,5.2-2.4,5.2-5.2v-331
		c0-2.9-2.4-5.2-5.2-5.2H13.2z"></path>
	<path class="logo__text" d="M96.2,211.6l14.7-21c7,6.7,17.5,12,30.1,12c5.3,0,10.4-1.4,10.4-5c0-9-52.1,0.1-52.1-36.7
		c0-15.8,13.2-30.9,38.8-30.9c15.3,0,29,4.3,39.6,13l-15.1,20c-8.1-6.2-18.6-9.2-27.4-9.2c-5.6,0-7.1,1.8-7.1,4.2
		c0,8.8,51.9,1.3,51.9,36c0,20.6-15.3,32.5-40.3,32.5C119.7,226.4,106.1,220.5,96.2,211.6z"></path>
	<path class="logo__text" d="M198.1,178.1c0-28.7,22.3-48.3,51.1-48.3s51.1,19.6,51.1,48.3c0,28.7-22.3,48.3-51.1,48.3
		S198.1,206.8,198.1,178.1z M271.6,178.1c0-13-8.8-23.4-22.4-23.4c-13.6,0-22.4,10.4-22.4,23.4s8.8,23.4,22.4,23.4
		C262.8,201.5,271.6,191.1,271.6,178.1z"></path>
	<path class="logo__text" d="M317.2,211.6l14.7-21c7,6.7,17.5,12,30.1,12c5.3,0,10.4-1.4,10.4-5c0-9-52.1,0.1-52.1-36.7
		c0-15.8,13.2-30.9,38.8-30.9c15.3,0,29,4.3,39.6,13l-15.1,20c-8.1-6.2-18.6-9.2-27.4-9.2c-5.6,0-7.1,1.8-7.1,4.2
		c0,8.8,51.9,1.3,51.9,36c0,20.6-15.3,32.5-40.3,32.5C340.8,226.4,327.2,220.5,317.2,211.6z"></path>
	<path class="logo__text" d="M485.9,224.7V189h-33.5v35.7h-28.3v-93.4h28.3v33h33.5v-33h28.3v93.4H485.9z"></path>
	<path class="logo__text" d="M605.6,224.7l-3.4-10.9h-33.6l-3.4,10.9h-32.1l34.4-93.4h35.6l34.4,93.4H605.6z M585.5,159.1l-9.2,30.1h18.5
		L585.5,159.1z"></path>
	<path class="logo__text" d="M656.7,224.7v-93.4H685v68.7h35.4v24.6H656.7z"></path>
</svg>