<?xml version="1.0" standalone="no"?>
<!DOCTYPE svg PUBLIC "-//W3C//DTD SVG 20010904//EN"
 "http://www.w3.org/TR/2001/REC-SVG-20010904/DTD/svg10.dtd">
<svg version="1.0" xmlns="http://www.w3.org/2000/svg"
 width="497.000000pt" height="497.000000pt" viewBox="0 0 497.000000 497.000000"
 preserveAspectRatio="xMidYMid meet">
<metadata>
Created by potrace 1.14, written by Peter Selinger 2001-2017
</metadata>
<g transform="translate(0.000000,497.000000) scale(0.100000,-0.100000)"
fill="#000000" stroke="none">
<path d="M620 3276 c-223 -50 -394 -168 -501 -346 -79 -131 -110 -245 -115
-410 -7 -257 69 -464 228 -621 102 -101 200 -155 360 -198 91 -25 281 -23 383
3 363 94 589 409 580 808 -3 123 -9 160 -40 255 -67 200 -194 350 -371 437
-69 33 -142 60 -199 72 -59 12 -270 12 -325 0z m350 -197 c63 -23 136 -66 181
-106 81 -72 160 -223 181 -346 10 -63 13 -201 5 -247 -3 -14 -8 -43 -12 -65
-16 -93 -83 -220 -154 -293 -168 -172 -441 -214 -651 -99 -200 110 -306 306
-307 568 -2 267 135 494 348 580 122 49 290 52 409 8z"/>
<path d="M1737 3262 c-15 -3 -16 -67 -14 -780 l2 -776 90 0 90 0 3 777 c2 618
0 777 -10 778 -30 3 -146 4 -161 1z"/>
<path d="M2114 3261 c-2 -2 -4 -53 -4 -113 0 -105 1 -108 23 -109 80 -3 159
-1 164 5 5 4 7 147 4 209 -1 9 -26 12 -92 12 -50 0 -93 -2 -95 -4z"/>
<path d="M2930 2864 c-92 -25 -190 -93 -228 -159 -10 -17 -12 -13 -13 30 -1
28 -1 63 -1 80 1 16 -3 32 -8 35 -4 3 -46 5 -92 4 l-83 0 -3 -571 c-2 -537 -1
-571 15 -575 10 -2 52 -4 93 -3 l75 1 6 379 c3 229 9 392 16 411 19 55 41 90
84 132 62 62 118 85 214 86 96 1 140 -16 202 -81 73 -75 77 -98 77 -540 1
-333 3 -383 16 -384 37 -4 156 -5 165 -2 15 5 11 782 -5 858 -18 87 -47 143
-105 200 -78 79 -163 111 -295 113 -41 1 -100 -5 -130 -14z"/>
<path d="M3980 2861 c-92 -25 -155 -58 -217 -114 -57 -53 -111 -148 -115 -206
l-3 -35 87 -1 88 -1 11 36 c40 120 139 183 294 186 93 1 146 -14 199 -58 47
-38 66 -81 73 -163 l5 -62 -106 -17 c-58 -10 -122 -19 -142 -22 -20 -2 -58 -9
-83 -15 -25 -6 -56 -13 -67 -15 -60 -11 -167 -49 -231 -80 -121 -59 -172 -145
-168 -279 7 -207 180 -339 431 -329 110 4 122 6 199 43 58 27 165 119 165 142
0 5 3 9 8 9 4 0 7 -38 7 -85 0 -50 4 -86 10 -88 5 -1 44 -3 85 -2 l75 0 0 405
c0 223 -3 430 -8 460 -9 63 -44 143 -81 182 -36 40 -141 95 -211 111 -88 21
-227 20 -305 -2z m418 -675 c-3 -95 -6 -110 -38 -172 -67 -131 -210 -198 -367
-174 -129 21 -203 90 -203 190 0 106 64 156 262 204 98 23 122 28 228 42 25 4
46 7 47 8 1 1 19 3 39 4 l36 3 -4 -105z"/>
<path d="M2114 2851 c-7 -8 -4 -1141 4 -1142 4 -1 46 -2 95 -3 l87 -1 -2 574
-3 575 -88 1 c-49 0 -91 -2 -93 -4z"/>
<path d="M4750 1836 c0 -90 3 -125 13 -128 6 -2 55 -4 107 -4 l95 1 3 128 3
127 -111 0 -110 0 0 -124z"/>
</g>
</svg>
