<?xml version="1.0" encoding="UTF-8"?>
<svg xmlns="http://www.w3.org/2000/svg" width="300px" height="100px" viewBox="0 0 150 50" fill="none">
  <g clip-path="url(#clip0_107_39739)">
    <path d="M23.4649 49.1597C20.2179 49.1597 17.1632 48.5721 14.3035 47.4023C11.4413 46.2298 8.96116 44.5738 6.8658 42.4317C4.77045 40.2922 3.10144 37.6873 1.86138 34.6223C0.618728 31.5547 0 28.1518 0 24.4108C0 20.6699 0.631727 17.345 1.89258 14.3008C3.15343 11.2565 4.84584 8.68808 6.96459 6.59275C9.08335 4.49742 11.5739 2.87263 14.4361 1.72358C17.2984 0.574526 20.3088 0 23.4649 0C26.6209 0 29.6964 0.564127 32.5586 1.68978C35.4209 2.81804 37.9114 4.42723 40.0302 6.52516C42.1489 8.62049 43.8387 11.1916 45.1022 14.2332C46.363 17.2748 46.9948 20.6673 46.9948 24.4082C46.9948 28.1492 46.363 31.5547 45.1022 34.6197C43.8387 37.6847 42.1489 40.2896 40.0302 42.4291C37.9114 44.5712 35.4209 46.2272 32.5586 47.3997C29.6964 48.5721 26.6651 49.1571 23.4649 49.1571V49.1597ZM23.4649 43.7497C25.854 43.7497 28.0975 43.287 30.1929 42.3641C32.2883 41.4412 34.1028 40.1336 35.6367 38.4412C37.1679 36.7515 38.3741 34.7107 39.2554 32.3216C40.1341 29.9325 40.5735 27.2965 40.5735 24.4108C40.5735 21.5252 40.1341 18.9802 39.2554 16.6353C38.3768 14.293 37.1705 12.286 35.6367 10.617C34.1028 8.95064 32.2883 7.66641 30.1929 6.76173C28.0975 5.85964 25.854 5.4099 23.4649 5.4099C21.0758 5.4099 18.8322 5.86224 16.7369 6.76173C14.6415 7.66381 12.8243 8.94804 11.2931 10.617C9.75927 12.286 8.55561 14.2904 7.67431 16.6353C6.79561 18.9802 6.35626 21.572 6.35626 24.4108C6.35626 27.2497 6.79561 29.8649 7.67431 32.254C8.55301 34.6431 9.75927 36.6839 11.2931 38.3736C12.8243 40.0634 14.6415 41.3815 16.7369 42.3303C18.8322 43.2766 21.0758 43.7497 23.4649 43.7497Z" fill="#25272A"></path>
    <path d="M51.9653 48.3486V0.800781H57.6457V48.3486H51.9653Z" fill="#25272A"></path>
    <path d="M63.7314 48.3487V13.3208H69.4118V48.3487H63.7314Z" fill="#25272A"></path>
    <path d="M81.1755 28.5341V48.3461H75.4951V13.3209H81.1079V18.528C82.0984 16.7706 83.5646 15.3278 85.504 14.1995C87.4407 13.0739 89.6973 12.5098 92.2658 12.5098C96.0535 12.5098 99.0952 13.6718 101.393 15.9933C103.691 18.3148 104.841 21.775 104.841 26.3738V48.3487H99.1602V27.0471C99.1602 23.9379 98.3699 21.5592 96.7944 19.9136C95.2164 18.268 93.1419 17.4465 90.5734 17.4465C88.1401 17.4465 85.9641 18.3824 84.0481 20.2542C82.1321 22.1259 81.1755 24.8868 81.1755 28.5367V28.5341Z" fill="#25272A"></path>
    <path d="M133.279 48.3486L133.211 42.6683C132.174 44.5609 130.663 46.1077 128.68 47.3009C126.696 48.4942 124.216 49.0921 121.242 49.0921C119.664 49.0921 118.12 48.8763 116.61 48.45C115.099 48.021 113.771 47.3789 112.622 46.5236C111.473 45.6683 110.537 44.5869 109.814 43.2792C109.094 41.9716 108.732 40.4404 108.732 38.6804C108.732 34.8485 110.31 32.1449 113.466 30.5669C116.623 28.9889 120.725 27.7956 125.773 26.9819L132.806 25.9005V24.9542C132.806 22.1596 132.062 20.1526 130.575 18.936C129.088 17.7193 127.06 17.111 124.489 17.111C122.056 17.111 120.026 17.7089 118.403 18.9022C116.781 20.098 115.767 21.7748 115.359 23.9403H109.814C110.04 22.183 110.581 20.592 111.439 19.1725C112.294 17.7531 113.375 16.5573 114.683 15.5876C115.991 14.6179 117.499 13.864 119.214 13.3233C120.928 12.7826 122.753 12.5122 124.692 12.5122C128.615 12.5122 131.883 13.4585 134.498 15.3536C137.111 17.2462 138.418 20.4932 138.418 25.092L138.283 40.8459C138.283 41.3867 138.307 42.1874 138.351 43.2454C138.395 44.3061 138.486 46.0063 138.621 48.3512H133.279V48.3486ZM114.345 38.4075C114.345 40.391 115.122 41.891 116.677 42.9049C118.232 43.9188 120.093 44.4257 122.256 44.4257C125.23 44.4257 127.734 43.4898 129.761 41.618C131.789 39.7489 132.806 37.0998 132.806 33.6735V30.4291C126.358 31.2402 121.671 32.1657 118.741 33.2003C115.811 34.2376 114.345 35.9716 114.345 38.4075Z" fill="#25272A"></path>
    <path d="M143.374 48.3486V40.6406H150V48.3486H143.374Z" fill="#25272A"></path>
    <path d="M69.4796 0.800781H63.6641V7.69769H69.4796V0.800781Z" fill="#25272A"></path>
  </g>
  <defs>
    <clipPath id="clip0_107_39739">
      <rect width="150" height="49.1597" fill="white"></rect>
    </clipPath>
  </defs>
</svg>
